<?xml version="1.0" encoding="UTF-8" standalone="no"?>
<!DOCTYPE svg PUBLIC "-//W3C//DTD SVG 1.1//EN" "http://www.w3.org/Graphics/SVG/1.1/DTD/svg11.dtd">
<svg width="100%" height="100%" viewBox="0 0 512 512" version="1.1" xmlns="http://www.w3.org/2000/svg" xmlns:xlink="http://www.w3.org/1999/xlink" xml:space="preserve" xmlns:serif="http://www.serif.com/" style="fill-rule:evenodd;clip-rule:evenodd;stroke-linejoin:round;stroke-miterlimit:2;">
    <g>
        <path d="M241.406,21L226.186,55.75C218.322,56.228 210.483,57.222 202.719,58.72L179.437,28.656L154.343,37.188L154.218,75.438C143.588,80.902 133.401,87.508 123.778,95.218L88.313,79.25L70.156,98.563L88.312,133C82.46,141.346 77.387,150.072 73.094,159.094L34.156,160.156L26.25,185.436L57.688,208.594C56.183,217.974 55.448,227.452 55.406,236.938L20.5,254.625L24.156,280.875L62.469,288.375C64.753,296.357 67.576,304.201 70.969,311.875L45.72,343.22L59.813,365.656L99.063,356.469C101.533,359.364 104.1,362.226 106.781,364.999C112.424,370.834 118.346,376.205 124.501,381.124L116.876,420.437L139.814,433.687L169.782,407.593C178.388,411.055 187.217,413.823 196.189,415.905L205.971,454.311L232.376,456.468L248.251,420.248C259.221,419.588 270.155,417.948 280.907,415.31L306.127,444.53L330.72,434.686L330,419.873L272.594,376.343C255.882,380.568 238.552,381.699 221.531,379.779C189.777,376.199 159.261,361.859 135.313,337.093C80.575,280.479 82.14,190.423 138.751,135.687C166.171,109.174 201.441,95.724 236.751,95.343C274.341,94.937 311.965,109.339 340.189,138.53C386.124,186.042 392.385,257.515 359.751,311.625L391.721,335.875C395.718,329.595 399.315,323.125 402.471,316.5L441.126,315.437L449.032,290.157L417.815,267.157C419.328,257.7 420.077,248.122 420.095,238.563L454.783,220.938L451.128,194.688L412.848,187.188C409.652,176.195 405.404,165.426 400.098,155.063L422.908,123.469L407.658,101.812L370.098,112.718C369.626,112.218 369.168,111.711 368.69,111.218C362.692,105.013 356.36,99.328 349.753,94.154L356.941,57.029L334,43.78L305.5,68.594C296.274,64.881 286.798,61.991 277.187,59.844L267.844,23.156L241.406,21ZM183.25,174.5C172.906,174.618 162.653,177.158 153.25,181.78L198.47,216.094C212.146,226.47 216.025,246.189 205.53,260.031C195.032,273.881 174.874,275.963 161,265.439L115.812,231.157C111.185,255.95 119.947,282.22 141.406,298.501C160.651,313.098 185.35,315.831 206.626,308.189L211.406,306.469L215.436,309.532L350.626,412.096L354.656,415.158L354.312,420.221C352.675,442.771 361.902,465.831 381.156,480.438C402.616,496.718 430.301,498.068 452.936,486.938L407.75,452.658C393.876,442.132 390.468,422.152 400.97,408.314C411.47,394.474 431.507,392.909 445.187,403.282L490.375,437.565C494.991,412.781 486.265,386.498 464.812,370.221C445.499,355.563 420.995,352.659 399.844,360.188L395.094,361.876L391.064,358.813L255.874,256.251L251.844,253.188L252.188,248.158C253.738,225.771 244.338,202.964 225.031,188.313C212.487,178.797 197.809,174.335 183.251,174.501L183.25,174.5ZM226.813,264.75L390.688,389.094L379.406,404L215.5,279.625L226.813,264.75Z" style="fill:rgb(165,239,172);fill-rule:nonzero;"/>
    </g>
</svg>
