<?xml version="1.0" encoding="UTF-8" standalone="no"?>
<!DOCTYPE svg PUBLIC "-//W3C//DTD SVG 1.1//EN" "http://www.w3.org/Graphics/SVG/1.1/DTD/svg11.dtd">
<svg width="100%" height="100%" viewBox="0 0 512 512" version="1.1" xmlns="http://www.w3.org/2000/svg" xmlns:xlink="http://www.w3.org/1999/xlink" xml:space="preserve" xmlns:serif="http://www.serif.com/" style="fill-rule:evenodd;clip-rule:evenodd;stroke-linejoin:round;stroke-miterlimit:2;">
    <g>
        <path d="M50,96C40.028,96 32,104.028 32,114L32,414C32,423.972 40.028,432 50,432L462,432C471.972,432 480,423.972 480,414L480,114C480,104.028 471.972,96 462,96L50,96ZM55,119L457,119L457,137L55,137L55,119ZM55,151L265,151L265,409L55,409L55,151ZM73,169L73,391L80.03,391C80.5,366.658 98.345,316.828 127.123,293.111C136.331,300.56 147.615,305 160,305C172.385,305 183.669,300.56 192.877,293.111C221.655,316.828 239.5,366.658 239.97,391L247,391L247,169L73,169ZM295,183L441,183L441,201L295,201L295,183ZM160,193C180.835,193 199,213.241 199,240C199,266.759 180.835,287 160,287C139.165,287 121,266.759 121,240C121,213.241 139.165,193 160,193ZM295,215L409,215L409,233L295,233L295,215ZM295,247L345,247L345,265L295,265L295,247ZM375,247L441,247L441,265L375,265L375,247ZM359,343L457,343L457,361L359,361L359,343ZM327,375L457,375L457,393L327,393L327,375Z" style="fill:rgb(165,239,172);fill-rule:nonzero;"/>
    </g>
</svg>
