<?xml version="1.0" encoding="UTF-8" standalone="no"?>
<!DOCTYPE svg PUBLIC "-//W3C//DTD SVG 1.1//EN" "http://www.w3.org/Graphics/SVG/1.1/DTD/svg11.dtd">
<svg width="100%" height="100%" viewBox="0 0 512 512" version="1.1" xmlns="http://www.w3.org/2000/svg" xmlns:xlink="http://www.w3.org/1999/xlink" xml:space="preserve" xmlns:serif="http://www.serif.com/" style="fill-rule:evenodd;clip-rule:evenodd;stroke-linejoin:round;stroke-miterlimit:2;">
    <g>
        <path d="M87,32L87,103L105,103L105,32L87,32ZM247,32L247,377L265,377L265,32L247,32ZM407,32L407,199L425,199L425,32L407,32ZM50,121C44.86,121 41,124.9 41,130L41,158C41,163.1 44.86,167 50,167L142,167C147.1,167 151,163.1 151,158L151,130C151,124.9 147.1,121 142,121L50,121ZM87,185L87,480L105,480L105,185L87,185ZM370,217C364.9,217 361,220.9 361,226L361,254C361,259.1 364.9,263 370,263L462,263C467.1,263 471,259.1 471,254L471,226C471,220.9 467.1,217 462,217L370,217ZM407,281L407,480L425,480L425,281L407,281ZM210,395C204.9,395 201,398.9 201,404L201,432C201,437.1 204.9,441 210,441L302,441C307.1,441 311,437.1 311,432L311,404C311,398.9 307.1,395 302,395L210,395ZM247,459L247,480L265,480L265,459L247,459Z" style="fill:rgb(165,239,172);fill-rule:nonzero;"/>
    </g>
</svg>
